<svg width="25" height="25" viewBox="0 0 25 25" fill="none" xmlns="http://www.w3.org/2000/svg">
<path d="M15.3691 0C18.2385 3.51391e-05 20.4869 0.56811 21.9941 2.0752C23.5012 3.58246 24.0703 5.83073 24.0703 8.7002V15.3691C24.0703 18.2386 23.5014 20.4869 21.9941 21.9941C20.4869 23.5014 18.2386 24.0703 15.3691 24.0703H8.7002C5.83073 24.0703 3.58246 23.5012 2.0752 21.9941C0.56811 20.4869 3.51391e-05 18.2385 0 15.3691V8.7002C0 5.83056 0.567932 3.58246 2.0752 2.0752C3.58246 0.567932 5.83056 0 8.7002 0H15.3691ZM8.7002 1.83789C6.01188 1.83789 4.36881 2.38119 3.375 3.375C2.38119 4.36881 1.83789 6.01188 1.83789 8.7002V15.3691C1.83793 18.0571 2.38133 19.7005 3.375 20.6943C4.36884 21.688 6.01212 22.2314 8.7002 22.2314H15.3691C18.0573 22.2314 19.7006 21.6881 20.6943 20.6943C21.6881 19.7006 22.2314 18.0573 22.2314 15.3691V8.7002C22.2314 6.01212 21.688 4.36884 20.6943 3.375C19.7005 2.38133 18.0571 1.83793 15.3691 1.83789H8.7002ZM6.34277 11.5938C6.85043 11.5938 7.26172 12.005 7.26172 12.5127V19.4268C7.26161 19.9343 6.85037 20.3457 6.34277 20.3457C5.83534 20.3455 5.42394 19.9342 5.42383 19.4268V12.5127C5.42383 12.0052 5.83528 11.5939 6.34277 11.5938ZM12.0342 13.9053C12.5417 13.9053 12.953 14.3167 12.9531 14.8242V19.4258C12.9531 19.9334 12.5418 20.3457 12.0342 20.3457C11.5267 20.3455 11.1152 19.9333 11.1152 19.4258V14.8242C11.1154 14.3168 11.5268 13.9055 12.0342 13.9053ZM17.7256 16.2061C18.2331 16.2061 18.6444 16.6175 18.6445 17.125V19.4258C18.6445 19.9334 18.2332 20.3447 17.7256 20.3447C17.2181 20.3445 16.8066 19.9333 16.8066 19.4258V17.125C16.8068 16.6176 17.2182 16.2063 17.7256 16.2061ZM5.56738 5.14258C5.69041 4.65034 6.18927 4.35093 6.68164 4.47363C10.572 5.44373 14.1124 7.45647 16.9229 10.2832V9.43359C16.923 8.9261 17.3343 8.51474 17.8418 8.51465C18.3494 8.51465 18.7606 8.92605 18.7607 9.43359V12.6797C18.7607 12.6882 18.759 12.6966 18.7588 12.7051C18.7582 12.725 18.7577 12.7448 18.7559 12.7646C18.755 12.7742 18.7531 12.7835 18.752 12.793C18.7457 12.8435 18.7362 12.8934 18.7217 12.9424C18.7182 12.954 18.7139 12.9652 18.71 12.9766C18.7045 12.9927 18.6988 13.0086 18.6924 13.0244C18.6882 13.0347 18.6832 13.0446 18.6787 13.0547C18.6464 13.127 18.6052 13.1956 18.5537 13.2588C18.5492 13.2644 18.5447 13.2699 18.54 13.2754C18.5257 13.2921 18.5108 13.3084 18.4951 13.3242C18.4886 13.3308 18.4823 13.3374 18.4756 13.3438C18.4631 13.3556 18.4508 13.3686 18.4375 13.3799C18.4352 13.3819 18.432 13.3828 18.4297 13.3848C18.4217 13.3914 18.4135 13.3979 18.4053 13.4043C18.2658 13.5128 18.1045 13.5754 17.9395 13.5928C17.9291 13.5939 17.9187 13.594 17.9082 13.5947C17.8877 13.5962 17.8672 13.5976 17.8467 13.5977C17.8451 13.5977 17.8434 13.5986 17.8418 13.5986H14.585C14.0775 13.5986 13.6663 13.1871 13.666 12.6797C13.666 12.172 14.0773 11.7608 14.585 11.7607H15.7969C13.1952 9.07665 9.88428 7.16643 6.23633 6.25684C5.74419 6.13385 5.44491 5.63484 5.56738 5.14258Z" fill="white"/>
</svg>
