<svg width="22" height="22" viewBox="0 0 22 22" fill="none" xmlns="http://www.w3.org/2000/svg">
<path d="M10.2334 0.00146484C11.2039 -0.0212902 12.2114 0.207853 13.0371 0.729004L13.2002 0.837402L19.3789 5.1665L19.6064 5.33936C20.1266 5.76576 20.5659 6.35259 20.8857 6.96533C21.2512 7.66555 21.4999 8.47489 21.5 9.23193V16.5122C21.4999 19.2352 19.2754 21.4721 16.54 21.4722H4.95996C2.22357 21.4721 0.00018731 19.2342 0 16.5024V9.09229C6.6879e-05 8.38209 0.22413 7.61281 0.553711 6.94092C0.883545 6.26875 1.35548 5.61857 1.91895 5.18018L7.30957 0.97998C8.1342 0.338695 9.19816 0.0257915 10.2334 0.00146484ZM10.2686 1.50049C9.49165 1.51876 8.75566 1.75613 8.23047 2.16455L2.84082 6.36377C2.5046 6.62527 2.16045 7.07111 1.90039 7.60107C1.64025 8.1313 1.50007 8.67282 1.5 9.09229V16.5024C1.50019 18.4104 3.05662 19.9721 4.95996 19.9722H16.54C18.4446 19.9721 19.9999 18.4091 20 16.5122V9.23193C19.9999 8.77922 19.8434 8.20811 19.5566 7.65869C19.2698 7.10927 18.8915 6.65486 18.5215 6.39697L18.5195 6.396L12.3398 2.06592C11.7939 1.68397 11.0454 1.48227 10.2686 1.50049ZM10.75 12.9722C11.1641 12.9722 11.4998 13.3081 11.5 13.7222V16.7222C11.5 17.1364 11.1642 17.4722 10.75 17.4722C10.3358 17.4722 10 17.1364 10 16.7222V13.7222C10.0002 13.3081 10.3359 12.9722 10.75 12.9722Z" fill="#171717"/>
</svg>
