<?xml version="1.0" encoding="UTF-8"?>
<svg id="Capa_2" data-name="Capa 2" xmlns="http://www.w3.org/2000/svg" viewBox="0 0 123.21 123.21">
  <defs>
    <style>
      .cls-1 {
        fill: #000032;
      }

      .cls-2 {
        fill: #fffef1;
      }

      .cls-3 {
        fill: #93f;
      }
    </style>
  </defs>
  <g id="Capa_1-2" data-name="Capa 1">
    <path class="cls-2" d="m0,73.07v24.25C0,111.62,11.59,123.21,25.89,123.21h71.43c14.3,0,25.89-11.59,25.89-25.89V25.89c0-10.22-5.92-19.06-14.52-23.26-1.04,18.27-9.23,36.17-22.25,49.15-16.74,16.68-40.81,25.26-64.42,24.54C14.57,76.09,7.19,74.98,0,73.07Z"/>
    <path class="cls-3" d="m0,25.83v47.08c7.17,1.91,14.54,3.01,21.97,3.24,23.56.72,47.58-7.84,64.28-24.49,12.99-12.95,21.16-30.81,22.2-49.04-3.42-1.69-7.27-2.62-11.34-2.62H25.83C11.56,0,0,11.56,0,25.83Z"/>
    <g>
      <path class="cls-2" d="m45.04,53.63c-3.81.08-6.75-1.06-9.42-2.94-2.85-2-4.48-4.88-5.52-8.13-.26-.8.63-2.19,1.37-2.34,1.14-.23,2.49.45,2.72,1.41.84,3.61,4.84,7.08,8.41,7.61,3.78.56,6.97-.43,9.72-3.02.82-.77,2.46-.67,3.17.16.68.8.38,2.31-.45,3.1-2,1.88-4.38,2.97-6.97,3.73-1.17.34-2.33.44-3.04.42Z"/>
      <path class="cls-2" d="m65.03,27.25c2.69-.41,5.02,1.08,7.34,2.43.64.37,1.07,1.2,1.47,1.89.5.86,1.12.9,1.92.56.3-.13.63-.16.93-.28.85-.35,1.57-.24,2.04.59.42.74.08,1.89-.68,2.42-.15.1-.31.22-.48.25-1.15.19-1.9.63-1.89,2.02,0,1.03-.97,1.45-1.83,1.5-.85.05-1.44-.6-1.72-1.4-.37-1.04-.46-2.17-1.16-3.1-1.13-1.52-2.64-2.54-4.45-2.83-2.83-.46-5.52-.15-7.45,2.4-.67.89-1.69,1.05-2.49.53-.8-.53-1.14-1.79-.57-2.64,1.67-2.52,4.05-3.96,7.05-4.32.58-.07,1.17-.01,1.97-.01Z"/>
      <path class="cls-2" d="m19.67,16.46c.57-.06.99.08,1.35.65.75,1.2,1.33,1.22,2.67.8,3.79-1.19,7.4-.87,10.72,1.49,2.35,1.67,3.55,4.03,4.18,6.75.26,1.14-.47,2.38-1.47,2.57-1.3.25-1.96-.28-2.22-1.83-.53-3.08-3.47-5.52-6.61-5.65-2-.09-3.8.23-5.37,1.55-.52.44-.74,1.1-1.42,1.46-.88.47-1.54.31-2.16-.29-.61-.59-.8-1.44-.3-2.08.81-1.04.37-1.67-.33-2.47-.55-.64-.99-1.4-.42-2.33.34-.57.8-.67,1.39-.63Z"/>
    </g>
    <g>
      <path class="cls-1" d="m72.98,87.33c.93,3.22-1.68,6.63-4.65,7.33-3.07.73-6.79-1.38-7.42-4.56-.63-3.15,1-6.88,4.97-7.6,3.12-.57,6.42,1.14,7.1,4.83Z"/>
      <path class="cls-1" d="m92.31,82.37c-.22-2.76.5-5.12,1.64-7.45,1.42-2.91,3.66-5.27,6.24-7.44.79-.67,1.73-.95,2.71-.9.94.06,1.66.54,1.83,1.43.18.95-.18,1.7-1.1,2.36-2.42,1.72-4.23,3.85-5.38,6.37-.11.24-.49.56-.06.81.31.18.56-.06.85-.18,2.98-1.2,6.03-2.03,9.28-1.99.61,0,1.23-.13,1.86-.08,1.53.13,2.42,1.02,2.28,2.32-.11,1.04-1.36,1.99-2.72,1.98-1.93-.02-3.85.15-5.73.66-2.89.78-5.62,1.93-8.09,3.52-1.2.78-3.64-.17-3.6-1.42Z"/>
      <path class="cls-1" d="m98.17,104.42c-3.26,2.92-6.67,4.11-10.39,4.47-3.97.38-7.54-.91-10.87-2.96-.82-.5-1.08-2.38-.55-3.06.82-1.06,2.5-1.47,3.41-.8,3.43,2.52,9.5,2.55,13,.35,3.71-2.33,5.74-5.58,6.2-9.89.14-1.28,1.64-2.42,2.88-2.23,1.19.19,2.06,1.73,1.92,3.04-.33,3.12-1.6,5.85-3.28,8.45-.76,1.17-1.7,2.12-2.33,2.64Z"/>
    </g>
  </g>
</svg>