<svg width="38" height="24" viewBox="0 0 38 24" fill="none" xmlns="http://www.w3.org/2000/svg">
<path d="M1.54492 14.0665C8.34492 -2.62765 28.7449 -2.62765 35.5449 14.0665" stroke="black" stroke-width="3.09091" stroke-linecap="round" stroke-linejoin="round"/>
<path d="M16.3751 21.9367C17.0626 22.2513 17.7995 22.4132 18.5436 22.4132C20.0465 22.4132 21.4879 21.7536 22.5506 20.5796C23.6133 19.4056 24.2103 17.8132 24.2103 16.1529C24.2103 14.4926 23.6133 12.9002 22.5506 11.7262C21.4879 10.5521 20.0465 9.89258 18.5436 9.89258C17.7995 9.89258 17.0626 10.0545 16.3751 10.3691C15.6876 10.6837 15.0629 11.1449 14.5367 11.7262C14.0105 12.3075 13.5931 12.9976 13.3083 13.7572C13.0235 14.5167 12.877 15.3308 12.877 16.1529C12.877 16.975 13.0235 17.7891 13.3083 18.5486C13.5931 19.3082 14.0105 19.9983 14.5367 20.5796C15.0629 21.1609 15.6876 21.6221 16.3751 21.9367Z" stroke="black" stroke-width="3.09091" stroke-linecap="round" stroke-linejoin="round"/>
</svg>
