<svg width="25" height="25" viewBox="0 0 25 25" fill="none" xmlns="http://www.w3.org/2000/svg">
<path d="M15.3691 0C18.2385 3.51391e-05 20.4869 0.56811 21.9941 2.0752C23.5012 3.58246 24.0703 5.83073 24.0703 8.7002V15.3691C24.0703 18.2386 23.5014 20.4869 21.9941 21.9941C20.4869 23.5014 18.2386 24.0703 15.3691 24.0703H8.7002C5.83073 24.0703 3.58246 23.5012 2.0752 21.9941C0.56811 20.4869 3.51391e-05 18.2385 0 15.3691V8.7002C0 5.83056 0.567932 3.58246 2.0752 2.0752C3.58246 0.567932 5.83056 0 8.7002 0H15.3691ZM8.7002 1.83789C6.01188 1.83789 4.36881 2.38119 3.375 3.375C2.38119 4.36881 1.83789 6.01188 1.83789 8.7002V15.3691C1.83793 18.0571 2.38133 19.7005 3.375 20.6943C4.36884 21.688 6.01212 22.2314 8.7002 22.2314H15.3691C18.0573 22.2314 19.7006 21.6881 20.6943 20.6943C21.6881 19.7006 22.2314 18.0573 22.2314 15.3691V8.7002C22.2314 6.01212 21.688 4.36884 20.6943 3.375C19.7005 2.38133 18.0571 1.83793 15.3691 1.83789H8.7002ZM12.0342 13.3496C12.5417 13.3496 12.9529 13.761 12.9531 14.2686V18.8701C12.9531 19.3778 12.5418 19.79 12.0342 19.79C11.5267 19.7898 11.1152 19.3776 11.1152 18.8701V14.2686C11.1154 13.7612 11.5268 13.3498 12.0342 13.3496ZM17.7256 11.0381C18.2332 11.0381 18.6445 11.4494 18.6445 11.957V18.8711C18.6444 19.3787 18.2332 19.79 17.7256 19.79C17.2182 19.7898 16.8068 19.3785 16.8066 18.8711V11.957C16.8066 11.4495 17.2181 11.0383 17.7256 11.0381ZM6.34277 15.6504C6.85027 15.6504 7.26146 16.0619 7.26172 16.5693V18.8701C7.26172 19.3778 6.85043 19.7891 6.34277 19.7891C5.83528 19.7889 5.42383 19.3777 5.42383 18.8701V16.5693C5.42409 16.062 5.83544 15.6506 6.34277 15.6504ZM17.792 4.28223C17.8024 4.28297 17.8129 4.28309 17.8232 4.28418C17.8416 4.28611 17.8597 4.28993 17.8779 4.29297C17.8896 4.29492 17.9015 4.29546 17.9131 4.29785C17.9295 4.30125 17.9456 4.30624 17.9619 4.31055C17.9746 4.31392 17.9875 4.31642 18 4.32031C18.0863 4.34716 18.1697 4.38709 18.2471 4.44043L18.3105 4.48926C18.3116 4.49013 18.3124 4.49131 18.3135 4.49219C18.316 4.49427 18.3188 4.49594 18.3213 4.49805C18.3318 4.507 18.3416 4.51705 18.3516 4.52637C18.3597 4.53391 18.3682 4.541 18.376 4.54883L18.3896 4.5625C18.3973 4.57053 18.4038 4.57964 18.4111 4.58789C18.4214 4.59945 18.4317 4.61098 18.4414 4.62305C18.4698 4.6583 18.4951 4.69509 18.5176 4.7334C18.5259 4.74759 18.5344 4.7617 18.542 4.77637C18.5488 4.78948 18.5545 4.80303 18.5605 4.81641C18.5654 4.82701 18.5698 4.83781 18.5742 4.84863C18.5811 4.86547 18.5879 4.88225 18.5938 4.89941C18.598 4.91176 18.6027 4.92395 18.6064 4.93652C18.6115 4.95359 18.6151 4.97098 18.6191 4.98828C18.6217 4.99902 18.6248 5.00962 18.627 5.02051C18.631 5.04119 18.6331 5.06212 18.6357 5.08301C18.637 5.09277 18.6387 5.10245 18.6396 5.1123C18.6415 5.13213 18.642 5.15197 18.6426 5.17188C18.6428 5.18065 18.6445 5.18941 18.6445 5.19824V8.44434C18.6444 8.95188 18.2332 9.36328 17.7256 9.36328C17.2181 9.36316 16.8068 8.95181 16.8066 8.44434V7.59375C13.9962 10.4206 10.4559 12.4342 6.56543 13.4043C6.07313 13.5269 5.57418 13.2275 5.45117 12.7354C5.32847 12.243 5.62798 11.7442 6.12012 11.6211C9.76794 10.7115 13.079 8.80113 15.6807 6.11719H14.4688C13.9611 6.11714 13.5498 5.70587 13.5498 5.19824C13.5498 4.69062 13.9611 4.27935 14.4688 4.2793H17.7402C17.7575 4.27955 17.7747 4.281 17.792 4.28223Z" fill="white"/>
</svg>
